# xmcd CD database file
#
# Track frame offsets:
#	150
#	46707
#	90101
#	133319
#	153196
#	206954
#	239574
#	282667
#	302724
#
# Disc length: 4584 seconds
#
# Revision: 0
# Processed by: cddbd v1.5.2PL0 Copyright (c) Steve Scherf et al.
# Submitted via: CDex 1.51
#
DISCID=7b11e609
DTITLE=Keith Jarrett - Charlie Haden - Last Dance
DYEAR=2014
DGENRE=Jazz
TTITLE0=My old Flame
TTITLE1=My Ship
TTITLE2=Round Midnight
TTITLE3=Dance of the Infidels
TTITLE4=It might as well be Spring
TTITLE5=Everything happens to me
TTITLE6=Where can I go without you
TTITLE7=Every Time we say Goodbye
TTITLE8=Goodbye
EXTD=YEAR: 2014
EXTT0=
EXTT1=
EXTT2=
EXTT3=
EXTT4=
EXTT5=
EXTT6=
EXTT7=
EXTT8=
PLAYORDER=
